<?xml version="1.0" encoding="utf-8" ?>
<svg baseProfile="full" height="1024" version="1.1" width="1024" xmlns="http://www.w3.org/2000/svg" xmlns:ev="http://www.w3.org/2001/xml-events" xmlns:xlink="http://www.w3.org/1999/xlink"><defs /><polyline fill="black" points="582,466 581,467 577,467 576,468 570,468 569,469 562,469 561,470 553,470 552,471 543,471 541,473 542,474 542,479 545,479 546,480 548,480 549,481 550,481 554,485 554,486 555,487 555,495 556,496 556,549 555,550 555,555 554,556 554,557 551,560 550,560 549,561 548,561 547,562 544,562 542,564 542,569 543,570 598,570 598,564 597,563 594,563 593,562 590,562 589,561 588,561 585,558 585,556 584,555 584,550 583,549 583,470 584,469 584,467 583,466" /><polyline fill="black" points="789,464 788,465 785,465 784,466 782,466 781,467 779,467 778,468 777,468 776,469 775,469 774,470 773,470 771,472 770,472 766,476 765,476 763,478 763,479 760,482 760,483 759,484 758,483 758,466 757,465 756,466 752,466 751,467 747,467 746,468 742,468 741,469 735,469 734,470 728,470 727,471 719,471 717,473 717,474 718,475 718,477 717,478 718,479 719,479 720,480 723,480 724,481 725,481 729,485 729,490 730,491 730,551 729,552 729,555 728,556 728,557 724,561 723,561 722,562 720,562 719,563 719,570 767,570 768,569 768,564 767,563 766,563 765,562 763,562 760,559 760,557 759,556 759,545 758,544 759,543 758,542 758,495 759,494 759,493 760,492 760,491 765,486 766,486 768,484 769,484 770,483 772,483 773,482 782,482 783,483 785,483 787,485 788,485 791,488 791,489 793,491 793,492 794,493 794,496 795,497 795,553 794,554 794,555 793,556 793,557 788,562 786,562 784,564 784,569 785,570 833,570 833,563 832,563 831,562 829,562 825,558 825,555 824,554 824,492 826,490 826,489 828,487 829,487 832,484 833,484 834,483 835,483 836,482 846,482 847,483 849,483 851,485 852,485 855,488 855,489 857,491 857,492 858,493 858,496 859,497 859,504 860,505 860,547 859,548 859,554 858,555 858,556 857,557 857,558 854,561 853,561 852,562 851,562 849,564 849,570 898,570 898,563 897,562 894,562 893,561 892,561 889,558 889,557 888,556 888,498 887,497 887,489 886,488 886,485 885,484 885,482 884,481 884,480 883,479 883,478 882,477 882,476 874,468 873,468 872,467 871,467 870,466 868,466 867,465 864,465 863,464 853,464 852,465 848,465 847,466 845,466 844,467 843,467 842,468 841,468 840,469 839,469 838,470 837,470 835,472 834,472 832,474 831,474 824,481 824,482 822,484 821,483 821,482 820,481 820,480 819,479 819,478 818,477 818,476 810,468 809,468 808,467 807,467 806,466 804,466 803,465 800,465 799,464" /><polyline fill="black" points="638,464 637,465 633,465 632,466 629,466 628,467 624,467 623,468 619,468 618,469 613,469 612,470 606,470 605,471 598,471 597,472 597,478 598,479 600,479 601,480 604,480 605,481 606,481 609,484 609,485 610,486 610,491 611,492 611,545 612,546 612,552 613,553 613,555 614,556 614,558 615,559 615,560 617,562 617,563 623,569 624,569 625,570 626,570 627,571 628,571 629,572 631,572 632,573 646,573 647,572 650,572 651,571 653,571 654,570 656,570 657,569 658,569 660,567 661,567 663,565 664,565 673,556 674,557 674,564 675,565 675,571 676,572 679,572 680,571 690,571 691,570 702,570 703,569 713,569 715,567 715,563 714,562 711,562 710,561 707,561 706,560 705,560 704,559 704,558 703,557 703,555 702,554 702,489 701,488 702,487 701,486 702,485 701,484 702,483 702,482 701,481 701,480 702,479 702,477 701,476 701,474 702,473 701,472 701,468 702,467 702,466 701,465 700,465 699,466 695,466 694,467 690,467 689,468 685,468 684,469 677,469 676,470 669,470 668,471 661,471 660,472 660,479 662,479 663,480 666,480 667,481 668,481 669,482 670,482 671,483 671,484 672,485 672,486 673,487 673,546 672,547 672,548 669,551 668,551 666,553 665,553 664,554 661,554 660,555 652,555 651,554 649,554 648,553 647,553 641,547 641,546 640,545 640,542 639,541 639,465" /><polyline fill="black" points="364,464 363,465 358,465 357,466 354,466 353,467 351,467 350,468 349,468 348,469 346,469 344,471 343,471 342,472 341,472 338,475 337,475 331,481 331,482 328,485 328,486 326,488 326,489 325,490 325,491 324,492 324,493 323,494 323,495 322,496 322,498 321,499 321,501 320,502 320,504 319,505 319,509 318,510 318,533 319,534 319,538 320,539 320,541 321,542 321,544 322,545 322,546 323,547 323,548 324,549 324,550 325,551 325,552 327,554 327,555 330,558 330,559 333,562 334,562 337,565 338,565 340,567 341,567 342,568 343,568 344,569 345,569 346,570 348,570 349,571 351,571 352,572 355,572 356,573 375,573 376,572 379,572 380,571 383,571 384,570 386,570 387,569 388,569 389,568 390,568 391,567 392,567 394,565 395,565 405,555 405,554 407,552 407,551 408,550 408,549 409,548 409,547 410,546 410,544 411,543 411,542 410,541 409,541 406,538 405,538 405,539 404,540 404,541 401,544 401,545 397,549 396,549 393,552 392,552 391,553 390,553 389,554 388,554 387,555 384,555 383,556 370,556 369,555 367,555 366,554 365,554 364,553 363,553 361,551 360,551 355,546 355,545 353,543 353,542 352,541 352,540 351,539 351,538 350,537 350,534 349,533 349,530 348,529 348,524 347,523 347,519 348,518 411,518 411,504 410,503 410,497 409,496 409,493 408,492 408,490 407,489 407,488 406,487 406,485 404,483 404,482 403,481 403,480 395,472 394,472 392,470 391,470 390,469 389,469 388,468 386,468 385,467 384,467 383,466 380,466 379,465 374,465 373,464" /><polyline fill="black" points="128,418 128,422 127,423 127,424 129,426 132,426 133,427 136,427 137,428 138,428 140,430 141,430 143,432 143,433 144,434 144,435 145,436 145,440 146,441 146,543 145,544 145,549 144,550 144,552 143,553 143,554 142,555 142,556 138,560 137,560 136,561 134,561 133,562 130,562 129,563 128,563 127,564 127,569 128,570 179,570 179,564 178,563 175,563 174,562 171,562 170,561 168,561 167,560 166,560 162,556 162,555 161,554 161,553 160,552 160,550 159,549 159,543 158,542 158,448 159,447 160,448 160,450 161,451 161,454 162,455 162,456 163,457 163,459 164,460 164,462 165,463 165,465 166,466 166,468 167,469 167,470 168,471 168,473 169,474 169,476 170,477 170,478 171,479 171,481 172,482 172,483 173,484 173,486 174,487 174,488 175,489 175,491 176,492 176,493 177,494 177,496 178,497 178,498 179,499 179,500 180,501 180,503 181,504 181,505 182,506 182,507 183,508 183,510 184,511 184,512 185,513 185,514 186,515 186,517 187,518 187,519 188,520 188,521 189,522 189,523 190,524 190,526 191,527 191,528 192,529 192,530 193,531 193,532 194,533 194,534 195,535 195,537 196,538 196,539 197,540 197,541 198,542 198,543 199,544 199,545 200,546 200,547 201,548 201,549 202,550 202,552 203,553 203,554 204,555 204,556 205,557 205,558 206,559 206,560 207,561 207,562 208,563 208,564 209,565 209,566 210,567 210,568 211,569 211,570 218,570 219,569 219,568 220,567 220,566 221,565 221,564 222,563 222,561 223,560 223,559 224,558 224,557 225,556 225,555 226,554 226,553 227,552 227,550 228,549 228,548 229,547 229,546 230,545 230,543 231,542 231,541 232,540 232,538 233,537 233,536 234,535 234,534 235,533 235,531 236,530 236,529 237,528 237,527 238,526 238,524 239,523 239,522 240,521 240,519 241,518 241,517 242,516 242,514 243,513 243,512 244,511 244,509 245,508 245,507 246,506 246,504 247,503 247,502 248,501 248,499 249,498 249,496 250,495 250,494 251,493 251,491 252,490 252,489 253,488 253,486 254,485 254,483 255,482 255,480 256,479 256,478 257,477 257,475 258,474 258,472 259,471 259,469 260,468 260,467 261,466 261,464 262,463 262,461 263,460 263,459 264,458 264,456 265,455 265,453 266,452 266,451 267,450 268,451 268,454 267,455 267,552 266,553 266,555 261,560 260,560 259,561 258,561 257,562 253,562 252,563 250,563 249,564 249,570 316,570 316,564 315,563 313,563 312,562 309,562 308,561 306,561 301,556 301,554 300,553 300,438 301,437 301,435 302,434 302,433 307,428 308,428 309,427 310,427 311,426 314,426 315,425 316,425 316,418 269,418 269,419 268,420 268,421 267,422 267,424 266,425 266,426 265,427 265,428 264,429 264,430 263,431 263,432 262,433 262,435 261,436 261,437 260,438 260,439 259,440 259,441 258,442 258,443 257,444 257,446 256,447 256,448 255,449 255,450 254,451 254,452 253,453 253,455 252,456 252,457 251,458 251,459 250,460 250,461 249,462 249,464 248,465 248,466 247,467 247,468 246,469 246,471 245,472 245,473 244,474 244,475 243,476 243,478 242,479 242,480 241,481 241,482 240,483 240,485 239,486 239,487 238,488 238,489 237,490 237,492 236,493 236,494 235,495 235,497 234,498 234,500 233,501 233,502 232,503 232,505 231,506 231,508 230,509 230,511 229,512 229,514 228,515 228,517 227,518 227,521 226,522 225,522 224,521 224,519 223,518 223,517 222,516 222,514 221,513 221,512 220,511 220,509 219,508 219,507 218,506 218,504 217,503 217,502 216,501 216,499 215,498 215,497 214,496 214,494 213,493 213,492 212,491 212,489 211,488 211,487 210,486 210,484 209,483 209,482 208,481 208,479 207,478 207,477 206,476 206,474 205,473 205,472 204,471 204,469 203,468 203,467 202,466 202,464 201,463 201,462 200,461 200,459 199,458 199,457 198,456 198,454 197,453 197,452 196,451 196,450 195,449 195,447 194,446 194,445 193,444 193,442 192,441 192,440 191,439 191,437 190,436 190,435 189,434 189,433 188,432 188,430 187,429 187,428 186,427 186,425 185,424 185,423 184,422 184,420 183,419 183,418" /><polyline fill="black" points="566,417 565,418 563,418 562,419 560,419 557,422 556,422 556,423 554,425 554,426 553,427 553,428 552,429 552,439 553,440 553,441 554,442 554,443 559,448 560,448 561,449 562,449 563,450 572,450 573,449 574,449 575,448 576,448 578,446 579,446 580,445 580,444 582,442 582,441 583,440 583,437 584,436 584,432 583,431 583,428 582,427 582,426 580,424 580,423 578,421 577,421 575,419 574,419 573,418 570,418 569,417" /><polyline fill="black" points="520,413 519,414 515,414 514,415 511,415 510,416 507,416 506,417 502,417 501,418 494,418 493,419 485,419 484,420 480,420 480,427 481,427 482,428 486,428 487,429 488,429 492,433 492,435 493,436 493,452 494,453 493,454 493,455 494,456 494,467 493,468 492,468 491,467 490,467 489,466 486,466 485,465 480,465 479,464 473,464 472,465 465,465 464,466 461,466 460,467 458,467 457,468 455,468 454,469 453,469 452,470 451,470 450,471 449,471 448,472 447,472 445,474 444,474 433,485 433,486 431,488 431,489 429,491 429,492 428,493 428,494 427,495 427,496 426,497 426,499 425,500 425,502 424,503 424,505 423,506 423,510 422,511 422,518 421,519 421,526 422,527 422,534 423,535 423,539 424,540 424,542 425,543 425,545 426,546 426,547 427,548 427,550 428,551 428,552 430,554 430,555 432,557 432,558 440,566 441,566 443,568 444,568 445,569 446,569 447,570 448,570 449,571 450,571 451,572 454,572 455,573 471,573 472,572 475,572 476,571 478,571 479,570 480,570 481,569 482,569 483,568 484,568 486,566 487,566 493,560 494,560 495,561 495,567 496,568 496,571 497,572 498,571 518,571 519,570 534,570 535,569 536,569 536,562 530,562 529,561 527,561 523,557 523,555 522,554 522,414 521,413" /></svg>